<?xml version="1.0" encoding="UTF-8" standalone="no"?>
<svg
   height="16"
   viewBox="0 0 16 16"
   width="16"
   version="1.1"
   id="svg1"
   sodipodi:docname="MeshInstance3D.svg"
   inkscape:version="1.3 (0e150ed6c4, 2023-07-21)"
   inkscape:export-filename="..\Desktop\VolumeRenderedObject.svg"
   inkscape:export-xdpi="96"
   inkscape:export-ydpi="96"
   xmlns:inkscape="http://www.inkscape.org/namespaces/inkscape"
   xmlns:sodipodi="http://sodipodi.sourceforge.net/DTD/sodipodi-0.dtd"
   xmlns="http://www.w3.org/2000/svg"
   xmlns:svg="http://www.w3.org/2000/svg">
  <defs
     id="defs1" />
  <sodipodi:namedview
     id="namedview1"
     pagecolor="#ffffff"
     bordercolor="#000000"
     borderopacity="0.25"
     inkscape:showpageshadow="2"
     inkscape:pageopacity="0.0"
     inkscape:pagecheckerboard="0"
     inkscape:deskcolor="#d1d1d1"
     showguides="true"
     inkscape:zoom="64"
     inkscape:cx="8.09375"
     inkscape:cy="5.2734375"
     inkscape:window-width="3840"
     inkscape:window-height="2066"
     inkscape:window-x="2869"
     inkscape:window-y="-11"
     inkscape:window-maximized="1"
     inkscape:current-layer="svg1">
    <sodipodi:guide
       position="10.092845,8.0043692"
       orientation="0,-1"
       id="guide1"
       inkscape:locked="false" />
    <sodipodi:guide
       position="8.0043692,8.310213"
       orientation="1,0"
       id="guide2"
       inkscape:locked="false" />
  </sodipodi:namedview>
  <path
     d="M 2.9960807,5.8252572 A 1.5485195,1.5485195 0 1 0 0.8823514,7.9389863 v 5.0644327 a 1.5485195,1.5485195 0 1 0 2.1137293,2.112955 H 8.0605138 A 1.5485195,1.5485195 0 1 0 10.173469,13.002645 V 7.9382121 A 1.5485195,1.5485195 0 1 0 8.0597396,5.8252572 Z M 3.5249,7.3737767 H 8.0597396 A 1.5485195,1.5485195 0 0 0 8.6241749,7.9389863 V 12.473051 L 3.5241258,7.3737767 Z M 2.4300967,8.4685801 7.5285974,13.567855 H 2.9937579 A 1.5485195,1.5485195 0 0 0 2.4293224,13.002645 V 8.4685801 Z"
     fill="#fc7f7f"
     id="path1"
     style="stroke-width:0.77426" />
  <path
     d="M 7.9968273,0.87293953 A 1.5485195,1.5485195 0 1 0 5.883098,2.9866689 V 8.0511014 A 1.5485195,1.5485195 0 1 0 7.9968273,10.164057 H 13.061262 A 1.5485195,1.5485195 0 1 0 15.174215,8.0503269 V 2.9858944 A 1.5485195,1.5485195 0 1 0 13.060486,0.87293953 Z M 8.525647,2.4214591 h 4.534837 a 1.5485195,1.5485195 0 0 0 0.564438,0.5652096 V 7.5207335 L 8.5248726,2.4214591 Z M 7.4308435,3.5162624 12.529344,8.6155376 H 7.9945044 A 1.5485195,1.5485195 0 0 0 7.4300692,8.0503269 V 3.5162624 Z"
     fill="#fc7f7f"
     id="path1-7"
     style="stroke-width:0.77426" />
  <path
     style="fill:#fc7e7e;fill-opacity:1;stroke-width:1.32997"
     d="M 5.8831086,0.83665025 0.81260189,5.9175481 1.9035916,7.0085384 6.9948798,1.9276407 Z"
     id="path3" />
  <path
     style="fill:#fc7e7e;fill-opacity:1;stroke-width:1.32997"
     d="M 13.577187,1.3405842 8.506681,6.4214821 9.5976701,7.5124724 14.688958,2.4315746 Z"
     id="path3-6" />
  <path
     style="fill:#fc7e7e;fill-opacity:1;stroke-width:1.32997"
     d="M 14.117487,8.4476069 9.046981,13.528505 10.13797,14.619496 15.22926,9.5385964 Z"
     id="path3-64" />
  <path
     style="fill:#fc7e7e;fill-opacity:1;stroke-width:1.32997"
     d="m 5.7844004,9.07103 -5.07050753,5.080899 1.09098973,1.09099 5.0912882,-5.080898 z"
     id="path3-68" />
</svg>
